<?xml version="1.0" encoding="UTF-8" standalone="no"?>
<!DOCTYPE svg PUBLIC "-//W3C//DTD SVG 1.1//EN"
 "http://www.w3.org/Graphics/SVG/1.1/DTD/svg11.dtd">
<!-- Generated by graphviz version 2.47.0 (20210316.0004)
 -->
<!-- Title: dependencies Pages: 1 -->
<svg width="3916pt" height="284pt"
 viewBox="0.00 0.00 3916.00 284.00" xmlns="http://www.w3.org/2000/svg" xmlns:xlink="http://www.w3.org/1999/xlink">
<g id="graph0" class="graph" transform="scale(1 1) rotate(0) translate(4 280)">
<title>dependencies</title>
<polygon fill="white" stroke="transparent" points="-4,4 -4,-280 3912,-280 3912,4 -4,4"/>
<text text-anchor="start" x="1933.01" y="-42.4" font-family="Times-12" font-weight="bold" font-size="14.00">Legend</text>
<polygon fill="#ffffb3" stroke="transparent" points="1720,-10 1720,-30 1740,-30 1740,-10 1720,-10"/>
<text text-anchor="start" x="1743.63" y="-15.4" font-family="Times-12" font-size="14.00"> &#160;Declarations</text>
<polygon fill="#8dd3c7" stroke="transparent" points="1833,-10 1833,-30 1853,-30 1853,-10 1833,-10"/>
<text text-anchor="start" x="1856.73" y="-15.4" font-family="Times-12" font-size="14.00"> &#160;Module</text>
<polygon fill="#80b1d3" stroke="transparent" points="1919,-10 1919,-30 1939,-30 1939,-10 1919,-10"/>
<text text-anchor="start" x="1942.78" y="-15.4" font-family="Times-12" font-size="14.00"> &#160;Bootstrap</text>
<polygon fill="#fdb462" stroke="transparent" points="2016,-10 2016,-30 2036,-30 2036,-10 2016,-10"/>
<text text-anchor="start" x="2039.67" y="-15.4" font-family="Times-12" font-size="14.00"> &#160;Providers</text>
<polygon fill="#fb8072" stroke="transparent" points="2112,-10 2112,-30 2132,-30 2132,-10 2112,-10"/>
<text text-anchor="start" x="2135.73" y="-15.4" font-family="Times-12" font-size="14.00"> &#160;Exports</text>
<g id="clust1" class="cluster">
<title>cluster_AdminModule</title>
<polygon fill="none" stroke="black" stroke-dasharray="1,5" points="8,-70 8,-195 797,-195 797,-70 8,-70"/>
</g>
<g id="clust2" class="cluster">
<title>cluster_AdminModule_declarations</title>
<polygon fill="none" stroke="black" points="184,-78 184,-130 789,-130 789,-78 184,-78"/>
</g>
<g id="clust7" class="cluster">
<title>cluster_AdminModule_imports</title>
<polygon fill="none" stroke="black" points="16,-78 16,-130 176,-130 176,-78 16,-78"/>
</g>
<g id="clust17" class="cluster">
<title>cluster_AppModule</title>
<polygon fill="none" stroke="black" stroke-dasharray="1,5" points="805,-70 805,-268 1223,-268 1223,-70 805,-70"/>
</g>
<g id="clust18" class="cluster">
<title>cluster_AppModule_declarations</title>
<polygon fill="none" stroke="black" points="965,-78 965,-130 1215,-130 1215,-78 965,-78"/>
</g>
<g id="clust21" class="cluster">
<title>cluster_AppModule_imports</title>
<polygon fill="none" stroke="black" points="813,-78 813,-130 957,-130 957,-78 813,-78"/>
</g>
<g id="clust23" class="cluster">
<title>cluster_AppModule_bootstrap</title>
<polygon fill="none" stroke="black" points="966,-208 966,-260 1090,-260 1090,-208 966,-208"/>
</g>
<g id="clust31" class="cluster">
<title>cluster_AuthModule</title>
<polygon fill="none" stroke="black" stroke-dasharray="1,5" points="1231,-70 1231,-195 1673,-195 1673,-70 1231,-70"/>
</g>
<g id="clust32" class="cluster">
<title>cluster_AuthModule_declarations</title>
<polygon fill="none" stroke="black" points="1395,-78 1395,-130 1665,-130 1665,-78 1395,-78"/>
</g>
<g id="clust35" class="cluster">
<title>cluster_AuthModule_imports</title>
<polygon fill="none" stroke="black" points="1239,-78 1239,-130 1387,-130 1387,-78 1239,-78"/>
</g>
<g id="clust45" class="cluster">
<title>cluster_ProductModule</title>
<polygon fill="none" stroke="black" stroke-dasharray="1,5" points="1681,-70 1681,-195 2411,-195 2411,-70 1681,-70"/>
</g>
<g id="clust46" class="cluster">
<title>cluster_ProductModule_declarations</title>
<polygon fill="none" stroke="black" points="1861,-78 1861,-130 2403,-130 2403,-78 1861,-78"/>
</g>
<g id="clust51" class="cluster">
<title>cluster_ProductModule_imports</title>
<polygon fill="none" stroke="black" points="1689,-78 1689,-130 1853,-130 1853,-78 1689,-78"/>
</g>
<g id="clust61" class="cluster">
<title>cluster_PublicModule</title>
<polygon fill="none" stroke="black" stroke-dasharray="1,5" points="2419,-70 2419,-195 3168,-195 3168,-70 2419,-70"/>
</g>
<g id="clust62" class="cluster">
<title>cluster_PublicModule_declarations</title>
<polygon fill="none" stroke="black" points="2591,-78 2591,-130 3160,-130 3160,-78 2591,-78"/>
</g>
<g id="clust67" class="cluster">
<title>cluster_PublicModule_imports</title>
<polygon fill="none" stroke="black" points="2427,-78 2427,-130 2583,-130 2583,-78 2427,-78"/>
</g>
<g id="clust77" class="cluster">
<title>cluster_UserModule</title>
<polygon fill="none" stroke="black" stroke-dasharray="1,5" points="3176,-70 3176,-195 3900,-195 3900,-70 3176,-70"/>
</g>
<g id="clust78" class="cluster">
<title>cluster_UserModule_declarations</title>
<polygon fill="none" stroke="black" points="3340,-78 3340,-130 3892,-130 3892,-78 3340,-78"/>
</g>
<g id="clust83" class="cluster">
<title>cluster_UserModule_imports</title>
<polygon fill="none" stroke="black" points="3184,-78 3184,-130 3332,-130 3332,-78 3184,-78"/>
</g>
<!-- AheaderComponent -->
<g id="node1" class="node">
<title>AheaderComponent</title>
<polygon fill="#ffffb3" stroke="black" points="781.24,-122 652.76,-122 652.76,-86 781.24,-86 781.24,-122"/>
<text text-anchor="middle" x="717" y="-99.8" font-family="Times,serif" font-size="14.00">AheaderComponent</text>
</g>
<!-- AdminModule -->
<g id="node5" class="node">
<title>AdminModule</title>
<polygon fill="#8dd3c7" stroke="black" points="468.44,-187 465.44,-191 444.44,-191 441.44,-187 369.56,-187 369.56,-151 468.44,-151 468.44,-187"/>
<text text-anchor="middle" x="419" y="-164.8" font-family="Times,serif" font-size="14.00">AdminModule</text>
</g>
<!-- AheaderComponent&#45;&gt;AdminModule -->
<g id="edge1" class="edge">
<title>AheaderComponent&#45;&gt;AdminModule</title>
<path fill="none" stroke="black" d="M717,-122.11C717,-141.34 717,-169 717,-169 717,-169 478.54,-169 478.54,-169"/>
<polygon fill="black" stroke="black" points="478.54,-165.5 468.54,-169 478.54,-172.5 478.54,-165.5"/>
</g>
<!-- AlayoutComponent -->
<g id="node2" class="node">
<title>AlayoutComponent</title>
<polygon fill="#ffffb3" stroke="black" points="634.44,-122 507.56,-122 507.56,-86 634.44,-86 634.44,-122"/>
<text text-anchor="middle" x="571" y="-99.8" font-family="Times,serif" font-size="14.00">AlayoutComponent</text>
</g>
<!-- AlayoutComponent&#45;&gt;AdminModule -->
<g id="edge2" class="edge">
<title>AlayoutComponent&#45;&gt;AdminModule</title>
<path fill="none" stroke="black" d="M571,-122.03C571,-138.4 571,-160 571,-160 571,-160 478.35,-160 478.35,-160"/>
<polygon fill="black" stroke="black" points="478.35,-156.5 468.35,-160 478.35,-163.5 478.35,-156.5"/>
</g>
<!-- DashboardComponent -->
<g id="node3" class="node">
<title>DashboardComponent</title>
<polygon fill="#ffffb3" stroke="black" points="489.97,-122 348.03,-122 348.03,-86 489.97,-86 489.97,-122"/>
<text text-anchor="middle" x="419" y="-99.8" font-family="Times,serif" font-size="14.00">DashboardComponent</text>
</g>
<!-- DashboardComponent&#45;&gt;AdminModule -->
<g id="edge3" class="edge">
<title>DashboardComponent&#45;&gt;AdminModule</title>
<path fill="none" stroke="black" d="M419,-122.11C419,-122.11 419,-140.99 419,-140.99"/>
<polygon fill="black" stroke="black" points="415.5,-140.99 419,-150.99 422.5,-140.99 415.5,-140.99"/>
</g>
<!-- SidemenuComponent -->
<g id="node4" class="node">
<title>SidemenuComponent</title>
<polygon fill="#ffffb3" stroke="black" points="329.83,-122 192.17,-122 192.17,-86 329.83,-86 329.83,-122"/>
<text text-anchor="middle" x="261" y="-99.8" font-family="Times,serif" font-size="14.00">SidemenuComponent</text>
</g>
<!-- SidemenuComponent&#45;&gt;AdminModule -->
<g id="edge4" class="edge">
<title>SidemenuComponent&#45;&gt;AdminModule</title>
<path fill="none" stroke="black" d="M261,-122.02C261,-139.37 261,-163 261,-163 261,-163 359.44,-163 359.44,-163"/>
<polygon fill="black" stroke="black" points="359.44,-166.5 369.44,-163 359.44,-159.5 359.44,-166.5"/>
</g>
<!-- AdminRoutingModule -->
<g id="node6" class="node">
<title>AdminRoutingModule</title>
<polygon fill="#8dd3c7" stroke="black" points="167.56,-122 164.56,-126 143.56,-126 140.56,-122 24.44,-122 24.44,-86 167.56,-86 167.56,-122"/>
<text text-anchor="middle" x="96" y="-99.8" font-family="Times,serif" font-size="14.00">AdminRoutingModule</text>
</g>
<!-- AdminRoutingModule&#45;&gt;AdminModule -->
<g id="edge5" class="edge">
<title>AdminRoutingModule&#45;&gt;AdminModule</title>
<path fill="none" stroke="black" d="M96,-122.28C96,-143.32 96,-175 96,-175 96,-175 359.59,-175 359.59,-175"/>
<polygon fill="black" stroke="black" points="359.59,-178.5 369.59,-175 359.59,-171.5 359.59,-178.5"/>
</g>
<!-- AppComponent -->
<g id="node7" class="node">
<title>AppComponent</title>
<polygon fill="#ffffb3" stroke="black" points="1206.94,-122 1101.06,-122 1101.06,-86 1206.94,-86 1206.94,-122"/>
<text text-anchor="middle" x="1154" y="-99.8" font-family="Times,serif" font-size="14.00">AppComponent</text>
</g>
<!-- AppModule -->
<g id="node9" class="node">
<title>AppModule</title>
<polygon fill="#8dd3c7" stroke="black" points="1069.66,-187 1066.66,-191 1045.66,-191 1042.66,-187 986.34,-187 986.34,-151 1069.66,-151 1069.66,-187"/>
<text text-anchor="middle" x="1028" y="-164.8" font-family="Times,serif" font-size="14.00">AppModule</text>
</g>
<!-- AppComponent&#45;&gt;AppModule -->
<g id="edge6" class="edge">
<title>AppComponent&#45;&gt;AppModule</title>
<path fill="none" stroke="black" d="M1154,-122.28C1154,-143.32 1154,-175 1154,-175 1154,-175 1079.96,-175 1079.96,-175"/>
<polygon fill="black" stroke="black" points="1079.96,-171.5 1069.96,-175 1079.96,-178.5 1079.96,-171.5"/>
</g>
<!-- ErrorComponent -->
<g id="node8" class="node">
<title>ErrorComponent</title>
<polygon fill="#ffffb3" stroke="black" points="1083.37,-122 972.63,-122 972.63,-86 1083.37,-86 1083.37,-122"/>
<text text-anchor="middle" x="1028" y="-99.8" font-family="Times,serif" font-size="14.00">ErrorComponent</text>
</g>
<!-- ErrorComponent&#45;&gt;AppModule -->
<g id="edge7" class="edge">
<title>ErrorComponent&#45;&gt;AppModule</title>
<path fill="none" stroke="black" d="M1028,-122.11C1028,-122.11 1028,-140.99 1028,-140.99"/>
<polygon fill="black" stroke="black" points="1024.5,-140.99 1028,-150.99 1031.5,-140.99 1024.5,-140.99"/>
</g>
<!-- AppComponent  -->
<g id="node11" class="node">
<title>AppComponent </title>
<polygon fill="#80b1d3" stroke="black" points="1082.44,-252 973.56,-252 973.56,-216 1082.44,-216 1082.44,-252"/>
<text text-anchor="middle" x="1028" y="-229.8" font-family="Times,serif" font-size="14.00">AppComponent </text>
</g>
<!-- AppModule&#45;&gt;AppComponent  -->
<g id="edge9" class="edge">
<title>AppModule&#45;&gt;AppComponent </title>
<path fill="none" stroke="black" stroke-dasharray="1,5" d="M1028,-187.11C1028,-187.11 1028,-205.99 1028,-205.99"/>
<polygon fill="black" stroke="black" points="1024.5,-205.99 1028,-215.99 1031.5,-205.99 1024.5,-205.99"/>
</g>
<!-- AppRoutingModule -->
<g id="node10" class="node">
<title>AppRoutingModule</title>
<polygon fill="#8dd3c7" stroke="black" points="949.27,-122 946.27,-126 925.27,-126 922.27,-122 820.73,-122 820.73,-86 949.27,-86 949.27,-122"/>
<text text-anchor="middle" x="885" y="-99.8" font-family="Times,serif" font-size="14.00">AppRoutingModule</text>
</g>
<!-- AppRoutingModule&#45;&gt;AppModule -->
<g id="edge8" class="edge">
<title>AppRoutingModule&#45;&gt;AppModule</title>
<path fill="none" stroke="black" d="M885,-122.29C885,-144.21 885,-178 885,-178 885,-178 976.25,-178 976.25,-178"/>
<polygon fill="black" stroke="black" points="976.25,-181.5 986.25,-178 976.25,-174.5 976.25,-181.5"/>
</g>
<!-- LoginComponent -->
<g id="node12" class="node">
<title>LoginComponent</title>
<polygon fill="#ffffb3" stroke="black" points="1657.28,-122 1542.72,-122 1542.72,-86 1657.28,-86 1657.28,-122"/>
<text text-anchor="middle" x="1600" y="-99.8" font-family="Times,serif" font-size="14.00">LoginComponent</text>
</g>
<!-- AuthModule -->
<g id="node14" class="node">
<title>AuthModule</title>
<polygon fill="#8dd3c7" stroke="black" points="1507.55,-187 1504.55,-191 1483.55,-191 1480.55,-187 1420.45,-187 1420.45,-151 1507.55,-151 1507.55,-187"/>
<text text-anchor="middle" x="1464" y="-164.8" font-family="Times,serif" font-size="14.00">AuthModule</text>
</g>
<!-- LoginComponent&#45;&gt;AuthModule -->
<g id="edge10" class="edge">
<title>LoginComponent&#45;&gt;AuthModule</title>
<path fill="none" stroke="black" d="M1600,-122.03C1600,-138.4 1600,-160 1600,-160 1600,-160 1517.78,-160 1517.78,-160"/>
<polygon fill="black" stroke="black" points="1517.78,-156.5 1507.78,-160 1517.78,-163.5 1517.78,-156.5"/>
</g>
<!-- LogoutComponent -->
<g id="node13" class="node">
<title>LogoutComponent</title>
<polygon fill="#ffffb3" stroke="black" points="1524.78,-122 1403.22,-122 1403.22,-86 1524.78,-86 1524.78,-122"/>
<text text-anchor="middle" x="1464" y="-99.8" font-family="Times,serif" font-size="14.00">LogoutComponent</text>
</g>
<!-- LogoutComponent&#45;&gt;AuthModule -->
<g id="edge11" class="edge">
<title>LogoutComponent&#45;&gt;AuthModule</title>
<path fill="none" stroke="black" d="M1464,-122.11C1464,-122.11 1464,-140.99 1464,-140.99"/>
<polygon fill="black" stroke="black" points="1460.5,-140.99 1464,-150.99 1467.5,-140.99 1460.5,-140.99"/>
</g>
<!-- AuthRoutingModule -->
<g id="node15" class="node">
<title>AuthRoutingModule</title>
<polygon fill="#8dd3c7" stroke="black" points="1379.17,-122 1376.17,-126 1355.17,-126 1352.17,-122 1246.83,-122 1246.83,-86 1379.17,-86 1379.17,-122"/>
<text text-anchor="middle" x="1313" y="-99.8" font-family="Times,serif" font-size="14.00">AuthRoutingModule</text>
</g>
<!-- AuthRoutingModule&#45;&gt;AuthModule -->
<g id="edge12" class="edge">
<title>AuthRoutingModule&#45;&gt;AuthModule</title>
<path fill="none" stroke="black" d="M1313,-122.02C1313,-139.37 1313,-163 1313,-163 1313,-163 1410.32,-163 1410.32,-163"/>
<polygon fill="black" stroke="black" points="1410.32,-166.5 1420.32,-163 1410.32,-159.5 1410.32,-166.5"/>
</g>
<!-- PAddComponent -->
<g id="node16" class="node">
<title>PAddComponent</title>
<polygon fill="#ffffb3" stroke="black" points="2394.72,-122 2281.28,-122 2281.28,-86 2394.72,-86 2394.72,-122"/>
<text text-anchor="middle" x="2338" y="-99.8" font-family="Times,serif" font-size="14.00">PAddComponent</text>
</g>
<!-- ProductModule -->
<g id="node20" class="node">
<title>ProductModule</title>
<polygon fill="#8dd3c7" stroke="black" points="2115.6,-187 2112.6,-191 2091.6,-191 2088.6,-187 2012.4,-187 2012.4,-151 2115.6,-151 2115.6,-187"/>
<text text-anchor="middle" x="2064" y="-164.8" font-family="Times,serif" font-size="14.00">ProductModule</text>
</g>
<!-- PAddComponent&#45;&gt;ProductModule -->
<g id="edge13" class="edge">
<title>PAddComponent&#45;&gt;ProductModule</title>
<path fill="none" stroke="black" d="M2338,-122.01C2338,-144.49 2338,-180 2338,-180 2338,-180 2125.86,-180 2125.86,-180"/>
<polygon fill="black" stroke="black" points="2125.86,-176.5 2115.86,-180 2125.86,-183.5 2125.86,-176.5"/>
</g>
<!-- PDeleteComponent -->
<g id="node17" class="node">
<title>PDeleteComponent</title>
<polygon fill="#ffffb3" stroke="black" points="2263.65,-122 2138.35,-122 2138.35,-86 2263.65,-86 2263.65,-122"/>
<text text-anchor="middle" x="2201" y="-99.8" font-family="Times,serif" font-size="14.00">PDeleteComponent</text>
</g>
<!-- PDeleteComponent&#45;&gt;ProductModule -->
<g id="edge14" class="edge">
<title>PDeleteComponent&#45;&gt;ProductModule</title>
<path fill="none" stroke="black" d="M2201,-122.13C2201,-142.57 2201,-173 2201,-173 2201,-173 2125.79,-173 2125.79,-173"/>
<polygon fill="black" stroke="black" points="2125.79,-169.5 2115.79,-173 2125.79,-176.5 2125.79,-169.5"/>
</g>
<!-- PEditComponent -->
<g id="node18" class="node">
<title>PEditComponent</title>
<polygon fill="#ffffb3" stroke="black" points="2120.45,-122 2007.55,-122 2007.55,-86 2120.45,-86 2120.45,-122"/>
<text text-anchor="middle" x="2064" y="-99.8" font-family="Times,serif" font-size="14.00">PEditComponent</text>
</g>
<!-- PEditComponent&#45;&gt;ProductModule -->
<g id="edge15" class="edge">
<title>PEditComponent&#45;&gt;ProductModule</title>
<path fill="none" stroke="black" d="M2064,-122.11C2064,-122.11 2064,-140.99 2064,-140.99"/>
<polygon fill="black" stroke="black" points="2060.5,-140.99 2064,-150.99 2067.5,-140.99 2060.5,-140.99"/>
</g>
<!-- PIndexComponent -->
<g id="node19" class="node">
<title>PIndexComponent</title>
<polygon fill="#ffffb3" stroke="black" points="1989.49,-122 1868.51,-122 1868.51,-86 1989.49,-86 1989.49,-122"/>
<text text-anchor="middle" x="1929" y="-99.8" font-family="Times,serif" font-size="14.00">PIndexComponent</text>
</g>
<!-- PIndexComponent&#45;&gt;ProductModule -->
<g id="edge16" class="edge">
<title>PIndexComponent&#45;&gt;ProductModule</title>
<path fill="none" stroke="black" d="M1929,-122.11C1929,-141.34 1929,-169 1929,-169 1929,-169 2002.19,-169 2002.19,-169"/>
<polygon fill="black" stroke="black" points="2002.19,-172.5 2012.19,-169 2002.19,-165.5 2002.19,-172.5"/>
</g>
<!-- ProductRoutingModule -->
<g id="node21" class="node">
<title>ProductRoutingModule</title>
<polygon fill="#8dd3c7" stroke="black" points="1845.22,-122 1842.22,-126 1821.22,-126 1818.22,-122 1696.78,-122 1696.78,-86 1845.22,-86 1845.22,-122"/>
<text text-anchor="middle" x="1771" y="-99.8" font-family="Times,serif" font-size="14.00">ProductRoutingModule</text>
</g>
<!-- ProductRoutingModule&#45;&gt;ProductModule -->
<g id="edge17" class="edge">
<title>ProductRoutingModule&#45;&gt;ProductModule</title>
<path fill="none" stroke="black" d="M1771,-122.29C1771,-144.21 1771,-178 1771,-178 1771,-178 2002.29,-178 2002.29,-178"/>
<polygon fill="black" stroke="black" points="2002.29,-181.5 2012.29,-178 2002.29,-174.5 2002.29,-181.5"/>
</g>
<!-- ContactComponent -->
<g id="node22" class="node">
<title>ContactComponent</title>
<polygon fill="#ffffb3" stroke="black" points="3152.38,-122 3027.62,-122 3027.62,-86 3152.38,-86 3152.38,-122"/>
<text text-anchor="middle" x="3090" y="-99.8" font-family="Times,serif" font-size="14.00">ContactComponent</text>
</g>
<!-- PublicModule -->
<g id="node26" class="node">
<title>PublicModule</title>
<polygon fill="#8dd3c7" stroke="black" points="2850.83,-187 2847.83,-191 2826.83,-191 2823.83,-187 2755.17,-187 2755.17,-151 2850.83,-151 2850.83,-187"/>
<text text-anchor="middle" x="2803" y="-164.8" font-family="Times,serif" font-size="14.00">PublicModule</text>
</g>
<!-- ContactComponent&#45;&gt;PublicModule -->
<g id="edge18" class="edge">
<title>ContactComponent&#45;&gt;PublicModule</title>
<path fill="none" stroke="black" d="M3090,-122.27C3090,-140.56 3090,-166 3090,-166 3090,-166 2860.71,-166 2860.71,-166"/>
<polygon fill="black" stroke="black" points="2860.71,-162.5 2850.71,-166 2860.71,-169.5 2860.71,-162.5"/>
</g>
<!-- PheaderComponent -->
<g id="node23" class="node">
<title>PheaderComponent</title>
<polygon fill="#ffffb3" stroke="black" points="3009.42,-122 2882.58,-122 2882.58,-86 3009.42,-86 3009.42,-122"/>
<text text-anchor="middle" x="2946" y="-99.8" font-family="Times,serif" font-size="14.00">PheaderComponent</text>
</g>
<!-- PheaderComponent&#45;&gt;PublicModule -->
<g id="edge19" class="edge">
<title>PheaderComponent&#45;&gt;PublicModule</title>
<path fill="none" stroke="black" d="M2946,-122.01C2946,-138.05 2946,-159 2946,-159 2946,-159 2861.01,-159 2861.01,-159"/>
<polygon fill="black" stroke="black" points="2861.01,-155.5 2851.01,-159 2861.01,-162.5 2861.01,-155.5"/>
</g>
<!-- PlayoutComponent -->
<g id="node24" class="node">
<title>PlayoutComponent</title>
<polygon fill="#ffffb3" stroke="black" points="2865.11,-122 2740.89,-122 2740.89,-86 2865.11,-86 2865.11,-122"/>
<text text-anchor="middle" x="2803" y="-99.8" font-family="Times,serif" font-size="14.00">PlayoutComponent</text>
</g>
<!-- PlayoutComponent&#45;&gt;PublicModule -->
<g id="edge20" class="edge">
<title>PlayoutComponent&#45;&gt;PublicModule</title>
<path fill="none" stroke="black" d="M2803,-122.11C2803,-122.11 2803,-140.99 2803,-140.99"/>
<polygon fill="black" stroke="black" points="2799.5,-140.99 2803,-150.99 2806.5,-140.99 2799.5,-140.99"/>
</g>
<!-- ProductComponent -->
<g id="node25" class="node">
<title>ProductComponent</title>
<polygon fill="#ffffb3" stroke="black" points="2723.38,-122 2598.62,-122 2598.62,-86 2723.38,-86 2723.38,-122"/>
<text text-anchor="middle" x="2661" y="-99.8" font-family="Times,serif" font-size="14.00">ProductComponent</text>
</g>
<!-- ProductComponent&#45;&gt;PublicModule -->
<g id="edge21" class="edge">
<title>ProductComponent&#45;&gt;PublicModule</title>
<path fill="none" stroke="black" d="M2661,-122.01C2661,-138.05 2661,-159 2661,-159 2661,-159 2745.32,-159 2745.32,-159"/>
<polygon fill="black" stroke="black" points="2745.32,-162.5 2755.32,-159 2745.32,-155.5 2745.32,-162.5"/>
</g>
<!-- PublicRoutingModule -->
<g id="node27" class="node">
<title>PublicRoutingModule</title>
<polygon fill="#8dd3c7" stroke="black" points="2575.45,-122 2572.45,-126 2551.45,-126 2548.45,-122 2434.55,-122 2434.55,-86 2575.45,-86 2575.45,-122"/>
<text text-anchor="middle" x="2505" y="-99.8" font-family="Times,serif" font-size="14.00">PublicRoutingModule</text>
</g>
<!-- PublicRoutingModule&#45;&gt;PublicModule -->
<g id="edge22" class="edge">
<title>PublicRoutingModule&#45;&gt;PublicModule</title>
<path fill="none" stroke="black" d="M2505,-122.27C2505,-140.56 2505,-166 2505,-166 2505,-166 2745.12,-166 2745.12,-166"/>
<polygon fill="black" stroke="black" points="2745.12,-169.5 2755.12,-166 2745.12,-162.5 2745.12,-169.5"/>
</g>
<!-- UAddComponent -->
<g id="node28" class="node">
<title>UAddComponent</title>
<polygon fill="#ffffb3" stroke="black" points="3883.55,-122 3768.45,-122 3768.45,-86 3883.55,-86 3883.55,-122"/>
<text text-anchor="middle" x="3826" y="-99.8" font-family="Times,serif" font-size="14.00">UAddComponent</text>
</g>
<!-- UserModule -->
<g id="node32" class="node">
<title>UserModule</title>
<polygon fill="#8dd3c7" stroke="black" points="3589.98,-187 3586.98,-191 3565.98,-191 3562.98,-187 3504.02,-187 3504.02,-151 3589.98,-151 3589.98,-187"/>
<text text-anchor="middle" x="3547" y="-164.8" font-family="Times,serif" font-size="14.00">UserModule</text>
</g>
<!-- UAddComponent&#45;&gt;UserModule -->
<g id="edge23" class="edge">
<title>UAddComponent&#45;&gt;UserModule</title>
<path fill="none" stroke="black" d="M3826,-122.28C3826,-143.32 3826,-175 3826,-175 3826,-175 3599.98,-175 3599.98,-175"/>
<polygon fill="black" stroke="black" points="3599.98,-171.5 3589.98,-175 3599.98,-178.5 3599.98,-171.5"/>
</g>
<!-- UDeleteComponent -->
<g id="node29" class="node">
<title>UDeleteComponent</title>
<polygon fill="#ffffb3" stroke="black" points="3749.97,-122 3622.03,-122 3622.03,-86 3749.97,-86 3749.97,-122"/>
<text text-anchor="middle" x="3686" y="-99.8" font-family="Times,serif" font-size="14.00">UDeleteComponent</text>
</g>
<!-- UDeleteComponent&#45;&gt;UserModule -->
<g id="edge24" class="edge">
<title>UDeleteComponent&#45;&gt;UserModule</title>
<path fill="none" stroke="black" d="M3686,-122.02C3686,-139.37 3686,-163 3686,-163 3686,-163 3600.22,-163 3600.22,-163"/>
<polygon fill="black" stroke="black" points="3600.22,-159.5 3590.22,-163 3600.22,-166.5 3600.22,-159.5"/>
</g>
<!-- UEditComponent -->
<g id="node30" class="node">
<title>UEditComponent</title>
<polygon fill="#ffffb3" stroke="black" points="3604.27,-122 3489.73,-122 3489.73,-86 3604.27,-86 3604.27,-122"/>
<text text-anchor="middle" x="3547" y="-99.8" font-family="Times,serif" font-size="14.00">UEditComponent</text>
</g>
<!-- UEditComponent&#45;&gt;UserModule -->
<g id="edge25" class="edge">
<title>UEditComponent&#45;&gt;UserModule</title>
<path fill="none" stroke="black" d="M3547,-122.11C3547,-122.11 3547,-140.99 3547,-140.99"/>
<polygon fill="black" stroke="black" points="3543.5,-140.99 3547,-150.99 3550.5,-140.99 3543.5,-140.99"/>
</g>
<!-- UIndexComponent -->
<g id="node31" class="node">
<title>UIndexComponent</title>
<polygon fill="#ffffb3" stroke="black" points="3471.81,-122 3348.19,-122 3348.19,-86 3471.81,-86 3471.81,-122"/>
<text text-anchor="middle" x="3410" y="-99.8" font-family="Times,serif" font-size="14.00">UIndexComponent</text>
</g>
<!-- UIndexComponent&#45;&gt;UserModule -->
<g id="edge26" class="edge">
<title>UIndexComponent&#45;&gt;UserModule</title>
<path fill="none" stroke="black" d="M3410,-122.13C3410,-142.57 3410,-173 3410,-173 3410,-173 3493.65,-173 3493.65,-173"/>
<polygon fill="black" stroke="black" points="3493.65,-176.5 3503.65,-173 3493.65,-169.5 3493.65,-176.5"/>
</g>
<!-- UserRoutingModule -->
<g id="node33" class="node">
<title>UserRoutingModule</title>
<polygon fill="#8dd3c7" stroke="black" points="3323.59,-122 3320.59,-126 3299.59,-126 3296.59,-122 3192.41,-122 3192.41,-86 3323.59,-86 3323.59,-122"/>
<text text-anchor="middle" x="3258" y="-99.8" font-family="Times,serif" font-size="14.00">UserRoutingModule</text>
</g>
<!-- UserRoutingModule&#45;&gt;UserModule -->
<g id="edge27" class="edge">
<title>UserRoutingModule&#45;&gt;UserModule</title>
<path fill="none" stroke="black" d="M3258,-122.01C3258,-144.49 3258,-180 3258,-180 3258,-180 3493.73,-180 3493.73,-180"/>
<polygon fill="black" stroke="black" points="3493.73,-183.5 3503.73,-180 3493.73,-176.5 3493.73,-183.5"/>
</g>
</g>
</svg>
